HIERARCHY
ROOT Hips
{
	OFFSET 0.000000 0.000000 0.000000 
	CHANNELS 6 Xposition Yposition Zposition Zrotation Yrotation Xrotation
	JOINT LeftUpLeg
	{
		OFFSET 1.363060 -1.794630 0.839290 
		CHANNELS 3 Zrotation Yrotation Xrotation
		JOINT LeftLeg
		{
			OFFSET 2.448110 -6.726130 0.000000 
			CHANNELS 3 Zrotation Yrotation Xrotation
			JOINT LeftFoot
			{
				OFFSET 2.562200 -7.039590 0.000000 
				CHANNELS 3 Zrotation Yrotation Xrotation
				JOINT LeftToeBase
				{
					OFFSET 0.157640 -0.433110 2.322550 
					CHANNELS 3 Zrotation Yrotation Xrotation
					End Site
					{
						OFFSET 0.000000 0.000000 0.000000 
					}
				}
			}
		}
	}
	JOINT RightUpLeg
	{
		OFFSET -1.305520 -1.794630 0.839290 
		CHANNELS 3 Zrotation Yrotation Xrotation
		JOINT RightLeg
		{
			OFFSET -2.542530 -6.985550 0.000000 
			CHANNELS 3 Zrotation Yrotation Xrotation
			JOINT RightFoot
			{
				OFFSET -2.568260 -7.056230 0.000000 
				CHANNELS 3 Zrotation Yrotation Xrotation
				JOINT RightToeBase
				{
					OFFSET -0.164730 -0.452590 2.363150 
					CHANNELS 3 Zrotation Yrotation Xrotation
					End Site
					{
						OFFSET 0.000000 0.000000 0.000000 
					}
				}
			}
		}
	}
	JOINT Spine
	{
		OFFSET 0.028270 2.035590 -0.193380 
		CHANNELS 3 Zrotation Yrotation Xrotation
		JOINT Spine1
		{
			OFFSET 0.056720 2.048850 -0.042750 
			CHANNELS 3 Zrotation Yrotation Xrotation
			JOINT Neck1
			{
				OFFSET -0.054170 1.746240 0.172020 
				CHANNELS 3 Zrotation Yrotation Xrotation
				JOINT Head
				{
					OFFSET 0.104070 1.761360 -0.123970 
					CHANNELS 3 Zrotation Yrotation Xrotation
					End Site
					{
						OFFSET 0.000000 0.000000 0.000000 
					}
				}
			}
			JOINT LeftArm
			{
				OFFSET 3.362410 1.200890 -0.311210 
				CHANNELS 3 Zrotation Yrotation Xrotation
				JOINT LeftForeArm
				{
					OFFSET 4.983000 -0.000000 -0.000000 
					CHANNELS 3 Zrotation Yrotation Xrotation
					JOINT LeftHand
					{
						OFFSET 3.483560 -0.000000 -0.000000 
						CHANNELS 3 Zrotation Yrotation Xrotation
						JOINT LeftHandIndex1
						{
							OFFSET 0.715260 -0.000000 -0.000000 
							CHANNELS 3 Zrotation Yrotation Xrotation
							End Site
							{
								OFFSET 0.000000 0.000000 0.000000 
							}
						}
					}
				}
			}
			JOINT RightArm
			{
				OFFSET -3.136600 1.374050 -0.404650 
				CHANNELS 3 Zrotation Yrotation Xrotation
				JOINT RightForeArm
				{
					OFFSET -5.241900 -0.000000 -0.000000 
					CHANNELS 3 Zrotation Yrotation Xrotation
					JOINT RightHand
					{
						OFFSET -3.444170 -0.000000 -0.000000 
						CHANNELS 3 Zrotation Yrotation Xrotation
						JOINT RightHandIndex1
						{
							OFFSET -0.622530 -0.000000 -0.000000 
							CHANNELS 3 Zrotation Yrotation Xrotation
							End Site
							{
								OFFSET 0.000000 0.000000 0.000000 
							}
						}
					}
				}
			}
		}
	}
}
MOTION
Frames: 10
Frame Time: 0.041667
11.580683 17.818349 -15.989124 5.260180 -75.706406 5.110102 -15.812324 4.926697 -6.825034 -0.694488 1.867199 5.494210 -0.050054 1.653084 0.653684 0.411400 -4.117500 -11.407600 15.916330 -0.905326 -13.058686 -1.586515 -8.979405 24.181248 1.467644 -8.525217 -10.055490 -0.158300 2.563700 -7.066200 1.773871 1.650428 -3.886803 3.404583 0.936242 -2.171201 -2.641987 13.380980 10.677021 0.842500 5.197500 10.314700 -88.161211 0.943134 23.306408 17.133747 -27.044292 -4.148877 0.808803 -1.677666 13.214987 -7.125000 0.000000 0.000000 87.679120 -2.209172 11.525621 -17.684363 28.867601 -4.885037 0.572707 0.183486 -4.622664 7.125000 0.000000 0.000000 
11.589643 17.816458 -15.991911 4.818850 -75.652582 5.362610 -15.645052 4.847271 -6.945760 -0.671998 2.075056 6.058261 0.004554 1.310828 0.378530 0.395000 -4.035300 -11.176100 16.060873 -1.002505 -13.022641 -1.613993 -9.036475 24.359466 1.471008 -8.547345 -10.134010 -0.153600 2.525500 -6.960400 1.792666 1.674219 -3.880738 3.398988 0.949854 -2.290237 -2.557883 13.365424 10.885980 0.892200 5.177400 10.399100 -88.029080 1.159587 23.867389 17.173806 -27.094458 -4.163225 0.819858 -1.681104 12.834335 -7.125000 0.000000 0.000000 87.652919 -2.234335 11.194978 -17.640920 28.803272 -4.851614 0.581422 0.177677 -4.299345 7.125000 0.000000 0.000000 
11.594123 17.813969 -15.995794 4.967417 -75.700332 5.006345 -15.635385 4.856615 -7.104182 -0.641907 2.342550 6.778180 0.007426 1.295744 -0.227535 0.452800 -4.317100 -11.970500 16.054675 -0.984948 -12.868996 -1.631677 -9.076807 24.477046 1.503315 -8.666846 -10.167990 -0.168000 2.640400 -7.279200 1.818133 1.712269 -3.831284 3.484390 0.966785 -2.287584 -2.510109 13.371454 10.923553 0.954800 5.162100 10.396900 -88.270170 1.074310 23.143917 16.988707 -26.826873 -4.057229 0.817190 -1.687686 13.538209 -7.125000 0.000000 0.000000 87.604261 -2.096807 10.870192 -17.559178 28.667144 -4.787697 0.595533 0.197993 -3.984302 7.125000 0.000000 0.000000 
11.598504 17.814267 -15.996690 4.117400 -75.578200 5.731894 -15.343920 4.701859 -7.277165 -0.620673 2.536766 7.295682 0.011094 1.285893 -0.550400 0.466900 -4.382500 -12.155400 16.281962 -0.959964 -12.825913 -1.652061 -9.115336 24.602444 1.520038 -8.735544 -10.242983 -0.165200 2.618400 -7.218200 1.892110 1.570829 -3.805281 3.534806 0.894728 -2.237702 -2.567394 13.506376 10.947572 0.940800 5.218400 10.407100 -88.421916 0.949727 22.229261 16.783176 -26.528475 -3.932103 0.800002 -1.697924 13.997732 -7.125000 0.000000 0.000000 87.599421 -1.945785 10.676053 -17.484433 28.545914 -4.736220 0.601217 0.218374 -4.003005 7.125000 0.000000 0.000000 
11.607564 17.815263 -15.996093 3.670303 -75.337365 6.159648 -15.142343 4.392171 -7.521169 -0.600408 2.721894 7.792362 0.045261 1.087792 -0.743896 0.394100 -4.031000 -11.163900 16.383596 -0.955284 -12.885218 -1.670052 -9.146198 24.711933 1.548943 -8.847163 -10.333658 -0.153200 2.522500 -6.951900 1.867345 1.468069 -3.830262 3.395726 0.844053 -2.307274 -2.539757 13.439607 10.905340 0.887300 5.222200 10.381700 -88.198213 0.956086 21.960259 16.659001 -26.345821 -3.851557 0.779994 -1.702652 14.031277 -7.125000 0.000000 0.000000 87.804603 -2.013297 10.227031 -17.505452 28.577572 -4.751245 0.593345 0.223351 -4.420338 7.125000 0.000000 0.000000 
11.614533 17.814467 -15.994799 4.047874 -75.210514 5.825434 -15.219328 4.175532 -7.796631 -0.576929 2.914711 8.313198 0.061493 1.000726 -1.027746 0.434600 -4.230500 -11.726200 16.217863 -0.911554 -12.954469 -1.685895 -9.176667 24.819823 1.509845 -8.720617 -10.449983 -0.102600 2.065300 -5.686200 1.798034 1.492015 -3.851552 3.284016 0.856680 -2.344377 -2.432122 13.279317 10.816239 0.872900 5.187300 10.302000 -88.032650 1.090100 21.900560 16.637528 -26.306384 -3.819739 0.751968 -1.713643 14.047436 -7.125000 0.000000 0.000000 87.967451 -2.234884 9.798037 -17.614179 28.734596 -4.813812 0.586743 0.226492 -5.141912 7.125000 0.000000 0.000000 
11.621502 17.813272 -15.991911 3.534981 -75.157277 6.324066 -15.115921 4.071343 -8.003458 -0.555021 3.071315 8.735451 0.087483 0.859988 -1.280705 0.500400 -4.535100 -12.587200 16.291931 -0.992948 -13.074544 -1.708688 -9.215465 24.959710 1.400361 -8.336690 -10.483543 -0.064800 1.642900 -4.519800 2.144836 0.782120 -3.837490 3.957985 0.506096 -2.191177 -2.206791 14.176465 10.899724 1.238000 5.534100 10.235100 -89.054806 1.381731 19.797608 16.678995 -26.351164 -3.800511 0.730015 -1.751504 14.452795 -7.125000 0.000000 0.000000 86.995868 -2.002866 11.185114 -17.556776 28.640507 -4.784086 0.584812 0.243233 -5.720553 7.125000 0.000000 0.000000 
11.634346 17.810783 -15.993604 3.572986 -75.075896 6.188467 -15.128833 3.956134 -8.109133 -0.532818 3.214730 9.123922 0.106899 0.750087 -1.382004 0.475700 -4.423200 -12.270500 16.289126 -1.294620 -13.224047 -1.736216 -9.265241 25.123839 1.333828 -8.085962 -10.363250 -0.063800 1.629100 -4.481700 2.779024 -0.681169 -3.781193 5.275585 -0.231814 -1.874233 -1.795919 15.973350 10.968249 1.984900 6.209000 10.096800 -90.974598 1.672601 15.920168 16.802959 -26.523461 -3.822973 0.719491 -1.802071 15.119035 -7.125000 0.000000 0.000000 85.181058 -1.118782 14.153982 -17.318902 28.274705 -4.654584 0.588098 0.275090 -6.040078 7.125000 0.000000 0.000000 
11.643505 17.805904 -15.998582 3.812364 -75.041603 5.830073 -15.188540 3.904789 -8.183659 -0.510450 3.348727 9.487723 0.094480 0.823179 -1.385952 0.415700 -4.138400 -11.466500 16.227423 -1.450203 -13.264877 -1.763942 -9.325620 25.304741 1.296036 -7.951287 -10.341535 -0.060500 1.587000 -4.365500 2.141397 0.766344 -3.701543 3.985395 0.481154 -1.983100 -2.026708 14.161514 11.019188 1.360400 5.514000 10.314900 -89.025631 1.204711 19.442588 16.573472 -26.192439 -3.723067 0.718003 -1.764121 14.704035 -7.125000 0.000000 0.000000 87.182915 -1.550866 9.858527 -17.441209 28.450496 -4.692971 0.594861 0.290281 -5.502810 7.125000 0.000000 0.000000 
11.646492 17.799035 -16.001967 3.299291 -75.066322 6.183329 -15.047704 3.940375 -8.224343 -0.489173 3.469008 9.811296 0.074997 0.952630 -1.545071 0.342600 -3.761000 -10.405100 16.350594 -1.407948 -13.189690 -1.792745 -9.386468 25.490353 1.273556 -7.886332 -10.444099 -0.060600 1.588200 -4.368900 1.679314 1.893082 -3.620375 2.945842 1.027453 -1.995829 -2.127869 12.830899 11.243140 0.917300 5.000600 10.599700 -87.533528 0.667742 22.168691 16.382557 -25.914466 -3.635644 0.710140 -1.738501 14.205406 -7.125000 0.000000 0.000000 88.748599 -1.670497 6.391143 -17.486894 28.533617 -4.696689 0.608592 0.283210 -4.893576 7.125000 0.000000 0.000000 
